<?xml version="1.0" encoding="utf-8"?>
<!-- Generator: Adobe Illustrator 16.0.0, SVG Export Plug-In . SVG Version: 6.00 Build 0)  -->
<!DOCTYPE svg PUBLIC "-//W3C//DTD SVG 1.1//EN" "http://www.w3.org/Graphics/SVG/1.1/DTD/svg11.dtd">
<svg version="1.1" id="图层_1" xmlns="http://www.w3.org/2000/svg" xmlns:xlink="http://www.w3.org/1999/xlink" x="0px" y="0px"
	 width="595px" height="681.332px" viewBox="0 0 595 681.332" enable-background="new 0 0 595 681.332" xml:space="preserve">
<line id="XMLID_3520_" fill="none" stroke="#7C7559" stroke-width="2" stroke-miterlimit="10" x1="16.114" y1="14.108" x2="585" y2="14.108"/>
<line id="XMLID_348_" fill="none" stroke="#7C7559" stroke-width="2" stroke-miterlimit="10" x1="16.114" y1="654.387" x2="585" y2="654.387"/>
<line id="XMLID_3561_" fill="none" stroke="#7C7559" stroke-width="3" stroke-miterlimit="10" stroke-dasharray="2" x1="300.558" y1="14.108" x2="300.558" y2="654.387"/>
<g id="XMLID_187_">
	
		<text id="XMLID_3680_" transform="matrix(1.0152 0 0 1 325.7324 91.8887)" fill="#7C7559" font-family="'MicrosoftYaHei'" font-size="18.036">民生银行行长毛晓峰被查</text>
</g>
<circle id="XMLID_359_" fill="#87994F" stroke="#3A2621" stroke-width="1.5" stroke-miterlimit="10" cx="300.557" cy="561.121" r="7.515"/>
<g id="XMLID_347_">
	<rect id="XMLID_15_" x="17.201" y="581.036" fill="none" width="259.423" height="45.321"/>
	<text transform="matrix(1.0152 0 0 1 17.2012 596.501)"><tspan x="0" y="0" fill="#7C7559" font-family="'MicrosoftYaHei'" font-size="18.036">证监会副主席姚刚因涉嫌严重违</tspan><tspan x="0" y="25.25" fill="#7C7559" font-family="'MicrosoftYaHei'" font-size="18.036">纪，</tspan><tspan x="35.351" y="25.25" fill="#7C7559" font-family="'MicrosoftYaHei'" font-size="18.036">接受组织调查</tspan></text>
</g>
<circle id="XMLID_345_" fill="#87994F" stroke="#3A2621" stroke-width="1.5" stroke-miterlimit="10" cx="300.557" cy="418.828" r="7.515"/>
<g id="XMLID_289_">
	<rect id="XMLID_14_" x="56.438" y="438.743" fill="none" width="266.187" height="20.07"/>
	<text transform="matrix(1.0152 0 0 1 56.4375 454.207)" fill="#7C7559" font-family="'MicrosoftYaHei'" font-size="18.036">证监会主席助理张育军被查</text>
</g>
<circle id="XMLID_3362_" fill="#CC9846" stroke="#3A2621" stroke-width="1.5" stroke-miterlimit="10" cx="300.557" cy="56.193" r="7.515"/>
<polygon id="XMLID_48_" fill="#CC9846" points="480.166,67.84 321.976,67.84 321.976,60.314 316.591,56.176 321.976,52.072 
	321.976,44.544 480.166,44.544 "/>
<polygon id="XMLID_96_" fill="#87994F" points="120.826,407.18 279.015,407.18 279.015,414.705 284.399,418.844 279.015,422.948 
	279.015,430.476 120.826,430.476 "/>
<polygon id="XMLID_98_" fill="#87994F" points="111.555,549.474 279.015,549.474 279.015,556.998 284.399,561.139 279.015,565.241 
	279.015,572.769 111.555,572.769 "/>
<polygon id="XMLID_93_" fill="#87994F" points="120.826,255.376 279.015,255.376 279.015,262.903 284.399,267.042 279.015,271.146 
	279.015,278.673 120.826,278.673 "/>
<text id="XMLID_3683_" transform="matrix(1.0152 0 0 1 325.6377 63.5195)" fill="#E7E4D8" font-family="'MicrosoftYaHei-Bold'" font-size="20.2905">2015年1月30日</text>
<g id="XMLID_201_">
	<rect id="XMLID_76_" x="323.478" y="207.034" fill="none" width="260.396" height="70.57"/>
	<text id="XMLID_203_" transform="matrix(1.0152 0 0 1 323.4775 222.4995)"><tspan x="0" y="0" fill="#7C7559" font-family="'MicrosoftYaHei'" font-size="18.036">中信证券公司执委会委员徐刚等</tspan><tspan x="0" y="25.25" fill="#7C7559" font-family="'MicrosoftYaHei'" font-size="18.036">8人涉嫌违法从事证券交易活动</tspan><tspan x="0" y="50.501" fill="#7C7559" font-family="'MicrosoftYaHei'" font-size="18.036">被调查</tspan></text>
</g>
<circle id="XMLID_200_" fill="#CC9846" stroke="#3A2621" stroke-width="1.5" stroke-miterlimit="10" cx="300.557" cy="183.42" r="7.515"/>
<polygon id="XMLID_62_" fill="#CC9846" points="480.166,195.068 321.976,195.068 321.976,187.542 316.591,183.403 321.976,179.299 
	321.976,171.771 480.166,171.771 "/>
<g id="XMLID_206_">
	
		<text transform="matrix(1.0152 0 0 1 325.6367 190.8643)" fill="#E7E4D8" font-family="'MicrosoftYaHei-Bold'" font-size="20.2905">2015年8月25日</text>
</g>
<rect id="XMLID_65_" x="323.478" y="367.859" fill="none" width="261.24" height="45.321"/>
<text id="XMLID_292_" transform="matrix(1.0152 0 0 1 323.4775 383.3242)"><tspan x="0" y="0" fill="#7C7559" font-family="'MicrosoftYaHei'" font-size="18.036">中信证券总经理程博明等3人涉嫌</tspan><tspan x="0" y="25.25" fill="#7C7559" font-family="'MicrosoftYaHei'" font-size="18.036">内幕交易、泄露内幕信息被调查</tspan></text>
<circle id="XMLID_286_" fill="#CC9846" stroke="#3A2621" stroke-width="1.5" stroke-miterlimit="10" cx="300.557" cy="344.241" r="7.515"/>
<polygon id="XMLID_81_" fill="#CC9846" points="480.166,355.89 321.976,355.89 321.976,348.362 316.591,344.224 321.976,340.12 
	321.976,332.593 480.166,332.593 "/>
<g id="XMLID_300_">
	
		<text transform="matrix(1.0152 0 0 1 325.6367 351.7559)" fill="#E7E4D8" font-family="'MicrosoftYaHei-Bold'" font-size="20.2905">2015年9月15日</text>
</g>
<rect id="XMLID_56_" x="323.478" y="517.615" fill="none" width="261.147" height="95.822"/>
<text id="XMLID_314_" transform="matrix(1.0152 0 0 1 323.4775 533.0801)"><tspan x="0" y="0" fill="#7C7559" font-family="'MicrosoftYaHei'" font-size="18.036">上海警方破获特大证券期货市场</tspan><tspan x="0" y="25.25" fill="#7C7559" font-family="'MicrosoftYaHei'" font-size="18.036">操纵案，泽熙投资管理有限公司</tspan><tspan x="0" y="50.5" fill="#7C7559" font-family="'MicrosoftYaHei'" font-size="18.036">法定代表人、总经理徐翔被带走</tspan><tspan x="0" y="75.752" fill="#7C7559" font-family="'MicrosoftYaHei'" font-size="18.036">调查</tspan></text>
<circle id="XMLID_303_" fill="#CC9846" stroke="#3A2621" stroke-width="1.5" stroke-miterlimit="10" cx="300.557" cy="494" r="7.515"/>
<polygon id="XMLID_82_" fill="#CC9846" points="480.166,505.649 321.976,505.649 321.976,498.122 316.591,493.982 321.976,489.879 
	321.976,482.353 480.166,482.353 "/>
<g id="XMLID_346_">
	
		<text transform="matrix(1.0152 0 0 1 325.6367 501.5156)" fill="#E7E4D8" font-family="'MicrosoftYaHei-Bold'" font-size="20.2905">2015年11月1日</text>
</g>
<circle id="XMLID_3690_" fill="#87994F" stroke="#3A2621" stroke-width="1.5" stroke-miterlimit="10" cx="300.557" cy="115.786" r="7.515"/>
<text id="XMLID_3740_" transform="matrix(1.0152 0 0 1 8.7383 151.1641)" fill="#7C7559" font-family="'MicrosoftYaHei'" font-size="18.036">华夏银行副行长王耀庭违纪被立案</text>
<polygon id="XMLID_84_" fill="#87994F" points="120.826,104.137 279.015,104.137 279.015,111.664 284.399,115.802 279.015,119.906 
	279.015,127.434 120.826,127.434 "/>
<g id="XMLID_173_">
	<g>
		
			<text id="XMLID_12_" transform="matrix(1.0152 0 0 1 132.9722 123.1113)" fill="#E7E4D8" font-family="'MicrosoftYaHei-Bold'" font-size="20.2905">2015年5月5日</text>
	</g>
</g>
<circle id="XMLID_250_" fill="#87994F" stroke="#3A2621" stroke-width="1.5" stroke-miterlimit="10" cx="300.557" cy="267.024" r="7.515"/>
<g id="XMLID_231_">
	<rect id="XMLID_13_" x="16.449" y="286.939" fill="none" width="260.175" height="45.321"/>
	<text transform="matrix(1.0152 0 0 1 16.4492 302.4038)"><tspan x="0" y="0" fill="#7C7559" font-family="'MicrosoftYaHei'" font-size="18.036">证监会发行处处长刘书帆涉嫌经</tspan><tspan x="0" y="25.25" fill="#7C7559" font-family="'MicrosoftYaHei'" font-size="18.036">济犯罪被依法采取刑事强制措施</tspan></text>
</g>
<g id="XMLID_232_">
	<g>
		
			<text id="XMLID_16_" transform="matrix(1.0152 0 0 1 125.9048 274.5396)" fill="#E7E4D8" font-family="'MicrosoftYaHei-Bold'" font-size="20.2905">2015年8月30日</text>
	</g>
</g>
<g id="XMLID_331_">
	<g>
		
			<text id="XMLID_19_" transform="matrix(1.0152 0 0 1 124.0264 425.7793)" fill="#E7E4D8" font-family="'MicrosoftYaHei-Bold'" font-size="20.2905">2015年9月16日</text>
	</g>
</g>
<g id="XMLID_355_">
	<g>
		
			<text id="XMLID_18_" transform="matrix(1.0152 0 0 1 114.3291 568.6367)" fill="#E7E4D8" font-family="'MicrosoftYaHei-Bold'" font-size="20.2905">2015年11月13日</text>
	</g>
</g>
</svg>
