<?xml version="1.0" encoding="utf-8"?>
<!-- Generator: Adobe Illustrator 16.0.0, SVG Export Plug-In . SVG Version: 6.00 Build 0)  -->
<!DOCTYPE svg PUBLIC "-//W3C//DTD SVG 1.1//EN" "http://www.w3.org/Graphics/SVG/1.1/DTD/svg11.dtd">
<svg version="1.1" id="图层_1" xmlns="http://www.w3.org/2000/svg" xmlns:xlink="http://www.w3.org/1999/xlink" x="0px" y="0px"
	 width="28px" height="40px" viewBox="0 0 28 40" enable-background="new 0 0 28 40" xml:space="preserve">
<path fill="#FFFFFF" d="M1.143,4.558L0.947,6.008l3.135,8.785l1.926,5.88l-0.315,0.985l-0.668,1.838l-0.272,2.197
	c0,0,0.354,3.216,1.135,4.232c0.786,1.02,4.982,5.962,10.118,5.453c5.138-0.51,6.396-0.742,7.845-2.081
	c1.45-1.332,2.784-3.293,2.784-3.293s0.819-3.409,0.194-5.099c-0.626-1.683-2.469-9.407-2.511-9.526
	c-0.037-0.117-1.295-2.666-1.409-2.705c-0.121-0.042-2.12,0.194-2.12,0.194l-1.645,0.94l-0.315-1.057l-1.489-1.334l-1.294,0.351
	l-1.335,1.022l-0.586-0.196l-0.864-0.942c0,0-1.411-0.195-1.529-0.195c-0.121,0-1.647,1.334-1.647,1.334L8.987,13.34l-1.296-2.469
	L5.144,4.088L2.948,3.575C2.948,3.575,1.22,3.968,1.143,4.558z"/>
<g>
	<path fill="#231815" d="M24.306,13.48c-0.37-1.008-1.421-1.685-2.62-1.685c-0.346,0-0.676,0.058-0.984,0.17
		c-0.17,0.063-0.578,0.276-0.97,0.575c-0.5-1.099-1.605-1.821-2.822-1.821c-0.364,0-0.721,0.062-1.062,0.185
		c-0.673,0.246-1.224,0.704-1.593,1.306c-0.766-0.983-2.047-1.392-3.235-0.96c-0.781,0.284-1.382,0.851-1.708,1.597L6.222,5.22
		C5.727,3.855,4.553,2.969,3.239,2.969c-0.354,0-0.713,0.065-1.065,0.192C0.515,3.767-0.251,5.565,0.401,7.356l5.137,13.218
		c-0.272,0.308-0.66,0.824-1.096,1.654C2.929,25.104,4,30.34,7.943,33.254c2.827,2.081,5.428,3.052,8.192,3.052
		c1.622,0,3.309-0.325,5.156-0.998c5.253-1.913,6.056-5.191,6.419-8.385C28.065,23.854,24.46,13.903,24.306,13.48z M26.39,26.774
		c-0.344,3.002-0.998,5.627-5.552,7.286c-1.699,0.616-3.236,0.915-4.702,0.915c-2.502,0-4.782-0.862-7.402-2.794
		c-2.358-1.736-4.744-6.242-3.119-9.336c0.18-0.335,0.34-0.603,0.486-0.82l1.672,4.317c0.136,0.344,0.519,0.514,0.864,0.378
		c0.339-0.132,0.509-0.52,0.378-0.857L1.646,6.889C1.243,5.785,1.647,4.766,2.627,4.41c0.97-0.352,1.959,0.198,2.357,1.287
		l4.656,11.498c0.126,0.314,0.471,0.484,0.8,0.388c0.33-0.097,0.53-0.422,0.466-0.756l-0.364-1.986
		c-0.008-0.039-0.019-0.073-0.029-0.106c-0.169-0.462-0.159-0.942,0.021-1.357c0.174-0.409,0.508-0.719,0.934-0.877
		c0.864-0.315,1.723,0.173,2.073,1.13l0.456,1.249l0,0c0.121,0.345,0.385,0.521,0.73,0.398C15.065,15.15,15,14.769,15,14.425v-0.005
		c0-0.444-0.016-0.921,0.184-1.352c0.197-0.429,0.615-0.754,1.059-0.914c0.193-0.073,0.43-0.106,0.635-0.106
		c0.74,0,1.424,0.468,1.683,1.163c0,0,0.896,2.227,1.096,2.705c0.194,0.478,0.512,0.555,0.84,0.432
		c0.335-0.123,0.456-0.465,0.306-0.887c-0.145-0.419-0.577-1.586-0.577-1.586c0.206-0.213,0.636-0.553,0.929-0.66
		c0.164-0.061,0.344-0.09,0.533-0.09c0.637,0,1.199,0.332,1.373,0.81C24.077,16.729,26.657,24.48,26.39,26.774z"/>
</g>
</svg>
